# xmcd
# 
# Track frame offsets:
#     150
#     24912
#     59357
#     81107
#     95902
#     112640
#     132337
#     163880
# 
# Disc length: 2456
# 
# Revision: 88
# Processed by: cddbd v1.5.2PL0 Copyright (c) Steve Scherf et al.
# Submitted via: BonkEnc v1.0.15
# 
DISCID=60099608
DTITLE=Led Zeppelin - Houses Of The Holy
DYEAR=1973
DGENRE=Rock
TTITLE0=The Song Remains The Same
TTITLE1=The Rain Song
TTITLE2=Over The Hills And Far Away
TTITLE3=The Crunge
TTITLE4=Dancing Days
TTITLE5=D'Yer Mak'er
TTITLE6=No Quarter
TTITLE7=The Ocean
EXTD=
EXTT0=
EXTT1=
EXTT2=
EXTT3=
EXTT4=
EXTT5=
EXTT6=
EXTT7=
PLAYORDER=
